# xmcd
#
# Track frame offsets:
#	150
#	22765
#	45655
#	55137
#
# Disc length: 1035 seconds
#
# Revision: 1
# Processed by: cddbd v1.5PL3 Copyright (c) Steve Scherf et al.
# Submitted via: CDex 1.50Beta5
#
DISCID=25040904
DTITLE=忌野清志郎と篠原涼子 - パーティーをぬけだそう!
DYEAR=1900
DGENRE=Rock
TTITLE0=パーティーをぬけだそう!
TTITLE1=クリスマス・モーニング
TTITLE2=つらい恋とカプチーノ
TTITLE3=パーティーをぬけだそう!
EXTD=
EXTT0=
EXTT1=
EXTT2=
EXTT3=
PLAYORDER=
